<svg xmlns="http://www.w3.org/2000/svg" viewBox="0 0 740 150" role="img" aria-label="Resultado esperado: contenedor discontinuo englobando el fragmento agregado con su nota"><rect width="740" height="150" fill="white"/><rect x="20" y="20" width="500" height="110" rx="8" fill="none" stroke="black" stroke-width="1.8" stroke-dasharray="8,5"/><rect x="40" y="55" width="170" height="28" fill="white" stroke="black" stroke-width="1.6"/><rect x="40" y="55" width="170" height="28" fill="#eeeeee" stroke="black" stroke-width="1.6"/><text x="125.0" y="74" text-anchor="middle" font-family="sans-serif" font-size="15" font-weight="bold">BIBLIOTECA</text><rect x="330" y="55" width="160" height="28" fill="white" stroke="black" stroke-width="1.6"/><rect x="330" y="55" width="160" height="28" fill="#eeeeee" stroke="black" stroke-width="1.6"/><text x="410.0" y="74" text-anchor="middle" font-family="sans-serif" font-size="15" font-weight="bold">ACTIVIDAD</text><line x1="210" y1="69" x2="330" y2="69" stroke="black" stroke-width="1.5"/><circle cx="224" cy="69" r="6" fill="white" stroke="black" stroke-width="1.5"/><line x1="210" y1="69" x2="226" y2="60" stroke="black" stroke-width="1.5"/><line x1="210" y1="69" x2="226" y2="69" stroke="black" stroke-width="1.5"/><line x1="210" y1="69" x2="226" y2="78" stroke="black" stroke-width="1.5"/><circle cx="306" cy="69" r="6" fill="white" stroke="black" stroke-width="1.5"/><line x1="330" y1="69" x2="314" y2="60" stroke="black" stroke-width="1.5"/><line x1="330" y1="69" x2="314" y2="69" stroke="black" stroke-width="1.5"/><line x1="330" y1="69" x2="314" y2="78" stroke="black" stroke-width="1.5"/><text x="270" y="50" text-anchor="middle" font-family="sans-serif" font-size="13" font-weight="bold" font-style="italic">organiza · N:M</text><rect x="540" y="50" width="170" height="40" fill="white" stroke="black" stroke-width="1" stroke-dasharray="3,3"/><text x="625" y="68" text-anchor="middle" font-family="sans-serif" font-size="12" font-style="italic">relacion agregada</text><text x="625" y="83" text-anchor="middle" font-family="sans-serif" font-size="12" font-style="italic">(ver memoria)</text><line x1="520" y1="70" x2="540" y2="70" stroke="black" stroke-width="1.5"/></svg>